<?xml version="1.0" encoding="UTF-8"?>
<svg viewBox="0 0 24 24" xmlns="http://www.w3.org/2000/svg">
  <path fill="#25D366" d="M12.01 2C6.48 2 2 6.48 2 12.01c0 1.75.46 3.49 1.34 5.02L2 22l5.14-1.3c1.48.79 3.15 1.21 4.87 1.21 5.52 0 10.01-4.49 10.01-10.01C22.02 6.48 17.53 2 12.01 2zm5.95 14.47c-.24.67-1.36 1.25-1.95 1.33-.54.07-1.25.06-2.01-.08-.46-.08-.99-.19-1.7-.37-3.01-1.01-4.97-4.07-5.12-4.26-.15-.19-1.18-1.56-1.18-2.98s.73-2.11 1.01-2.4c.24-.25.52-.31.69-.31.17 0 .35 0 .5.01.16.01.38-.06.59.45.24.59.81 1.97.88 2.11.07.14.12.3.02.48-.1.18-.15.29-.3.44-.15.15-.32.34-.46.46-.15.13-.3.27-.13.53.17.26.75 1.23 1.61 1.99 1.1 1 2.03 1.31 2.32 1.46.29.15.46.13.63-.08.17-.21.73-.85.92-1.14.19-.29.38-.24.64-.14.26.1 1.63.77 1.91.91.28.14.47.21.54.33.07.12.07.67-.17 1.34z"/>
</svg> 