<svg width="200" height="70" viewBox="0 0 200 70" fill="none" xmlns="http://www.w3.org/2000/svg">
  <rect width="200" height="70" rx="14" fill="#0058A1"/>
  <path d="M54 21C47 21 41 26.5 41 34.5C41 42.5 47 48 54 48C60.4 48 65.6 43.5 66.8 37.4H59.6C58.7 39.9 56.6 41.4 54 41.4C50.2 41.4 47.4 38.2 47.4 34.5C47.4 30.7 50.2 27.6 54 27.6C56.5 27.6 58.7 29 59.6 31.6H66.8C65.6 25.4 60.4 21 54 21Z" fill="white"/>
  <path d="M78.9 21.2H72.1V48H78.9V21.2Z" fill="white"/>
  <path d="M102 21C95 21 89.5 26.5 89.5 34.5C89.5 42.5 95 48 102 48C109 48 114.4 42.5 114.4 34.5C114.4 26.5 109 21 102 21ZM102 41.4C98.2 41.4 95.4 38.2 95.4 34.5C95.4 30.7 98.2 27.6 102 27.6C105.8 27.6 108.6 30.7 108.6 34.5C108.6 38.2 105.8 41.4 102 41.4Z" fill="white"/>
  <path d="M141.1 21.2H118.5V27.6H127.4V48H134.2V27.6H141.1V21.2Z" fill="white"/>
  <text x="20" y="63" fill="#E5F2FF" font-family="'Arial', sans-serif" font-size="12" font-weight="600">Universidad del Caribe</text>
</svg>
